<svg id="eXMAPbIjoNt1" xmlns="http://www.w3.org/2000/svg" xmlns:xlink="http://www.w3.org/1999/xlink" viewBox="0 0 128 128" shape-rendering="geometricPrecision" text-rendering="geometricPrecision" project-id="b350884ec8ee41f9acaa3bdbcc000197" export-id="eda225554b7e4f4da25f9adb043a50b6" cached="false"><g><path d="M97.9,90c-2.6,0-4.8,1.7-5.7,4h-8.7c-.8-2.3-3-4-5.7-4-3.3,0-6,2.7-6,6s2.7,6,6,6c2.6,0,4.8-1.7,5.7-4h8.7c.8,2.3,3,4,5.7,4c3.3,0,6-2.7,6-6s-2.7-6-6-6Z" fill="#3f6587"/><path d="M50,90c-2.6,0-4.8,1.7-5.7,4h-8.7c-.8-2.3-3-4-5.7-4-3.3,0-6,2.7-6,6s2.7,6,6,6c2.6,0,4.8-1.7,5.7-4h8.7c.8,2.3,3,4,5.7,4c3.3,0,6-2.7,6-6s-2.7-6-6-6Z" fill="#3e6586"/><path d="M111,78h-1c-.5,0-1,.5-1,1v2h-5v-3h-80v3h-5v-2c0-.5-.5-1-1-1h-1c-.5,0-1,.5-1,1v8c0,.5.5,1,1,1h1c.5,0,1-.5,1-1v-2h5v3h80v-3h5v2c0,.5.5,1,1,1h1c.5,0,1-.5,1-1v-8c0-.5-.5-1-1-1Z" fill="#344857"/></g></svg>
